# xmcd
# 
# Track frame offsets:
#     150
#     23938
#     46295
#     66473
#     87910
#     110210
#     135083
#     161134
#     183044
#     208172
#     240092
#     263510
#     287003
#     313622
# 
# Disc length: 4503
# 
# Revision: 5
# Processed by: cddbd v1.5.2PL0 Copyright (c) Steve Scherf et al.
# Submitted via: BonkEnc v1.0.8
# 
DISCID=bd11950e
DTITLE=GLAY - WHITE ROAD -Ballad Best Singles-
DYEAR=2005
DGENRE=JPop
TTITLE0=ホワイトロード
TTITLE1=Way of Difference
TTITLE2=SOUL LOVE
TTITLE3=BELOVED
TTITLE4=SPECIAL THANKS
TTITLE5=Blue Jean
TTITLE6=逢いたい気持ち
TTITLE7=a Boy 〜ずっと忘れない〜
TTITLE8=HOWEVER
TTITLE9=ずっと2人で…
TTITLE10=BE WITH YOU
TTITLE11=Winter，again
TTITLE12=時の雫
TTITLE13=つづれ織り 〜so far and yet so close〜
EXTD=YEAR: 2005
EXTT0=
EXTT1=
EXTT2=
EXTT3=
EXTT4=
EXTT5=
EXTT6=
EXTT7=
EXTT8=
EXTT9=
EXTT10=
EXTT11=
EXTT12=
EXTT13=
PLAYORDER=
